<svg class="diagram-root" style="background: #f5f6f6" xmlns="http://www.w3.org/2000/svg" xmlns:xlink="http://www.w3.org/1999/xlink"><style>.diagram-root { font-family: "Helvetica Neue", sans-serif; font-size: 12px; } .t { overflow: visible; } .t-bg { y: 40; fill: #fff;   } .th { fill: #005aa0;   } .tht { fill: #fff; font-size: 14px;  } .tf { fill: #323c46; overflow: visible; } .tf.pk { fill: #005aa0; font-weight: bold; } .tf.fk { font-weight: bold; } .ty { fill: #adb1b5; font-weight: normal; text-anchor: end; } .r { fill: transparent; stroke: #c3c3c3; stroke-width: 1; } .l { stroke: 1; } .i { fill: #c2c7ce; stroke: #c2c7ce; } .i.ix { fill: #afb3b6; stroke: #000; } .fa { fill: transparent; overflow: visible; } .fa .bg.hover { fill: #f7f7f7; } .c { cy: 12; r: 4; stroke: #d2d2dc; fill: #d2d2dc; } .hr { fill: transparent; stroke: #323c46; stroke-opacity: 0.035; stroke-width: 13; } .dc { stroke: #fa5a3c; fill: #fa5a3c; } .x { stroke: white; stroke-width: 1; } .hl .th { fill: #1b9bff; } .hl .tht {  } .fhl .bg { fill: #e7f4ff; } .fhls .bg {  } .r.hl { stroke: #1b9bff; } .dim { opacity: 0.25; }</style><g class="drawing-wrapper" transform="translate(-17, -2) scale(1,1)"><g class="rs"><path d="M 228.83 271 m -1, 0 a 1,1 0 1,0 2,0 a 1,1 0 1,0 -2,0 M 228.83 271 m -0.5, 0 a 0.5,0.5 0 1,0 1,0 a 0.5,0.5 0 1,0 -1,0  M228.83 271 L228.83 271 240.83 271 M 228.83 277 m -1, 0 a 1,1 0 1,0 2,0 a 1,1 0 1,0 -2,0 M 228.83 277 m -0.5, 0 a 0.5,0.5 0 1,0 1,0 a 0.5,0.5 0 1,0 -1,0  M228.83 277 L228.83 277 235.83 271 228.83 265 M 228.83 265 m -1, 0 a 1,1 0 1,0 2,0 a 1,1 0 1,0 -2,0 M 228.83 265 m -0.5, 0 a 0.5,0.5 0 1,0 1,0 a 0.5,0.5 0 1,0 -1,0  M240.83 271 Q 274.88 271, 308.92 373.5 T 377 476 M 389 476 m -1, 0 a 1,1 0 1,0 2,0 a 1,1 0 1,0 -2,0 M 389 476 m -0.5, 0 a 0.5,0.5 0 1,0 1,0 a 0.5,0.5 0 1,0 -1,0  M389 476 L389 476 377 476 M383 482 L383 482 383 470" id="h1537058300" class="r"></path><path d="M 389 89 m -1, 0 a 1,1 0 1,0 2,0 a 1,1 0 1,0 -2,0 M 389 89 m -0.5, 0 a 0.5,0.5 0 1,0 1,0 a 0.5,0.5 0 1,0 -1,0  M389 89 L389 89 377 89 M 389 95 m -1, 0 a 1,1 0 1,0 2,0 a 1,1 0 1,0 -2,0 M 389 95 m -0.5, 0 a 0.5,0.5 0 1,0 1,0 a 0.5,0.5 0 1,0 -1,0  M389 95 L389 95 382 89 389 83 M 389 83 m -1, 0 a 1,1 0 1,0 2,0 a 1,1 0 1,0 -2,0 M 389 83 m -0.5, 0 a 0.5,0.5 0 1,0 1,0 a 0.5,0.5 0 1,0 -1,0  M377 89 Q 342.96 89, 308.92 167.5 T 240.83 246 M 228.83 246 m -1, 0 a 1,1 0 1,0 2,0 a 1,1 0 1,0 -2,0 M 228.83 246 m -0.5, 0 a 0.5,0.5 0 1,0 1,0 a 0.5,0.5 0 1,0 -1,0  M228.83 246 L228.83 246 240.83 246 M234.83 252 L234.83 252 234.83 240" id="h1139284389" class="r"></path><path d="M 557.5 114 m -1, 0 a 1,1 0 1,0 2,0 a 1,1 0 1,0 -2,0 M 557.5 114 m -0.5, 0 a 0.5,0.5 0 1,0 1,0 a 0.5,0.5 0 1,0 -1,0  M557.5 114 L557.5 114 569.5 114 M 557.5 120 m -1, 0 a 1,1 0 1,0 2,0 a 1,1 0 1,0 -2,0 M 557.5 120 m -0.5, 0 a 0.5,0.5 0 1,0 1,0 a 0.5,0.5 0 1,0 -1,0  M557.5 120 L557.5 120 564.5 114 557.5 108 M 557.5 108 m -1, 0 a 1,1 0 1,0 2,0 a 1,1 0 1,0 -2,0 M 557.5 108 m -0.5, 0 a 0.5,0.5 0 1,0 1,0 a 0.5,0.5 0 1,0 -1,0  M569.5 114 Q 601.13 114, 632.75 138.5 T 696 163 M 708 163 m -1, 0 a 1,1 0 1,0 2,0 a 1,1 0 1,0 -2,0 M 708 163 m -0.5, 0 a 0.5,0.5 0 1,0 1,0 a 0.5,0.5 0 1,0 -1,0  M708 163 L708 163 696 163 M702 169 L702 169 702 157" id="h1607168654" class="r"></path><path d="M 556.5 220 m -1, 0 a 1,1 0 1,0 2,0 a 1,1 0 1,0 -2,0 M 556.5 220 m -0.5, 0 a 0.5,0.5 0 1,0 1,0 a 0.5,0.5 0 1,0 -1,0  M556.5 220 L556.5 220 568.5 220 M 556.5 226 m -1, 0 a 1,1 0 1,0 2,0 a 1,1 0 1,0 -2,0 M 556.5 226 m -0.5, 0 a 0.5,0.5 0 1,0 1,0 a 0.5,0.5 0 1,0 -1,0  M556.5 226 L556.5 226 563.5 220 556.5 214 M 556.5 214 m -1, 0 a 1,1 0 1,0 2,0 a 1,1 0 1,0 -2,0 M 556.5 214 m -0.5, 0 a 0.5,0.5 0 1,0 1,0 a 0.5,0.5 0 1,0 -1,0  M568.5 220 Q 600.38 220, 632.25 191.5 T 696 163 M 708 163 m -1, 0 a 1,1 0 1,0 2,0 a 1,1 0 1,0 -2,0 M 708 163 m -0.5, 0 a 0.5,0.5 0 1,0 1,0 a 0.5,0.5 0 1,0 -1,0  M708 163 L708 163 696 163 M702 169 L702 169 702 157" id="h1397587031" class="r"></path><path d="M 388 245 m -1, 0 a 1,1 0 1,0 2,0 a 1,1 0 1,0 -2,0 M 388 245 m -0.5, 0 a 0.5,0.5 0 1,0 1,0 a 0.5,0.5 0 1,0 -1,0  M388 245 L388 245 376 245 M 388 251 m -1, 0 a 1,1 0 1,0 2,0 a 1,1 0 1,0 -2,0 M 388 251 m -0.5, 0 a 0.5,0.5 0 1,0 1,0 a 0.5,0.5 0 1,0 -1,0  M388 251 L388 251 381 245 388 239 M 388 239 m -1, 0 a 1,1 0 1,0 2,0 a 1,1 0 1,0 -2,0 M 388 239 m -0.5, 0 a 0.5,0.5 0 1,0 1,0 a 0.5,0.5 0 1,0 -1,0  M376 245 Q 342.21 245, 308.42 245.5 T 240.83 246 M 228.83 246 m -1, 0 a 1,1 0 1,0 2,0 a 1,1 0 1,0 -2,0 M 228.83 246 m -0.5, 0 a 0.5,0.5 0 1,0 1,0 a 0.5,0.5 0 1,0 -1,0  M228.83 246 L228.83 246 240.83 246 M234.83 252 L234.83 252 234.83 240" id="h2286254435" class="r"></path><path d="M 393 350 m -1, 0 a 1,1 0 1,0 2,0 a 1,1 0 1,0 -2,0 M 393 350 m -0.5, 0 a 0.5,0.5 0 1,0 1,0 a 0.5,0.5 0 1,0 -1,0  M393 350 L393 350 381 350 M 393 356 m -1, 0 a 1,1 0 1,0 2,0 a 1,1 0 1,0 -2,0 M 393 356 m -0.5, 0 a 0.5,0.5 0 1,0 1,0 a 0.5,0.5 0 1,0 -1,0  M393 356 L393 356 386 350 393 344 M 393 344 m -1, 0 a 1,1 0 1,0 2,0 a 1,1 0 1,0 -2,0 M 393 344 m -0.5, 0 a 0.5,0.5 0 1,0 1,0 a 0.5,0.5 0 1,0 -1,0  M381 350 Q 345.96 350, 310.92 298 T 240.83 246 M 228.83 246 m -1, 0 a 1,1 0 1,0 2,0 a 1,1 0 1,0 -2,0 M 228.83 246 m -0.5, 0 a 0.5,0.5 0 1,0 1,0 a 0.5,0.5 0 1,0 -1,0  M228.83 246 L228.83 246 240.83 246 M234.83 252 L234.83 252 234.83 240" id="h3177548053" class="r"></path></g><g class="hrs"></g><g class="ts"><svg width="179.81" height="100" x="389" y="419" id="h311790747" class="t"><rect height="40" width="179.81" class="th"></rect><text x="13" y="25" class="tht">titles</text><rect height="60" width="179.81" class="t-bg"></rect><text x="13" y="61" class="tf pk">title_id<tspan x="166.81" class="ty">VARCHAR(30)</tspan></text><path d="M7,14A2,2 0 0,1 5,12A2,2 0 0,1 7,10A2,2 0 0,1 9,12A2,2 0 0,1 7,14M12.65,10C11.83,7.67 9.61,6 7, 6A6, 6 0 0, 0 1, 12A6, 6 0 0, 0 7, 18C9.61, 18 11.83, 16.33 12.65, 14H17V18H21V14H23V10H12.65Z" class="i pk" transform="translate(67.685, 48) scale(0.65)"></path><text x="13" y="86" class="tf">title<tspan x="166.81" class="ty">VARCHAR(255)</tspan></text></svg><svg width="189.83" height="225" x="39" y="189" id="h1639608377" class="t"><rect height="40" width="189.83" class="th"></rect><text x="13" y="25" class="tht">employees</text><rect height="185" width="189.83" class="t-bg"></rect><text x="13" y="61" class="tf pk">emp_no<tspan x="176.83" class="ty">INT</tspan></text><path d="M7,14A2,2 0 0,1 5,12A2,2 0 0,1 7,10A2,2 0 0,1 9,12A2,2 0 0,1 7,14M12.65,10C11.83,7.67 9.61,6 7, 6A6, 6 0 0, 0 1, 12A6, 6 0 0, 0 7, 18C9.61, 18 11.83, 16.33 12.65, 14H17V18H21V14H23V10H12.65Z" class="i pk" transform="translate(137.499921875, 48) scale(0.65)"></path><text x="13" y="86" class="tf fk">emp_title_id<tspan x="176.83" class="ty">VARCHAR(30)</tspan></text><text x="13" y="111" class="tf">birth_date<tspan x="176.83" class="ty">DATE</tspan></text><text x="13" y="136" class="tf">first_name<tspan x="176.83" class="ty">VARCHAR(255)</tspan></text><text x="13" y="161" class="tf">last_name<tspan x="176.83" class="ty">VARCHAR(255)</tspan></text><text x="13" y="186" class="tf">sex<tspan x="176.83" class="ty">VARCHAR(30)</tspan></text><text x="13" y="211" class="tf">hire_date<tspan x="176.83" class="ty">DATE</tspan></text></svg><svg width="188.5" height="100" x="708" y="106" id="h475896179" class="t"><rect height="40" width="188.5" class="th"></rect><text x="13" y="25" class="tht">departments</text><rect height="60" width="188.5" class="t-bg"></rect><text x="13" y="61" class="tf pk">dept_no<tspan x="175.5" class="ty">VARCHAR(30)</tspan></text><path d="M7,14A2,2 0 0,1 5,12A2,2 0 0,1 7,10A2,2 0 0,1 9,12A2,2 0 0,1 7,14M12.65,10C11.83,7.67 9.61,6 7, 6A6, 6 0 0, 0 1, 12A6, 6 0 0, 0 7, 18C9.61, 18 11.83, 16.33 12.65, 14H17V18H21V14H23V10H12.65Z" class="i pk" transform="translate(76.375, 48) scale(0.65)"></path><text x="13" y="86" class="tf">dept_name<tspan x="175.5" class="ty">VARCHAR(50)</tspan></text></svg><svg width="168.5" height="100" x="389" y="32" id="h1090417462" class="t"><rect height="40" width="168.5" class="th"></rect><text x="13" y="25" class="tht">dept_emp</text><rect height="60" width="168.5" class="t-bg"></rect><text x="13" y="61" class="tf fk">emp_no<tspan x="155.5" class="ty">INT</tspan></text><text x="13" y="86" class="tf fk">dept_no<tspan x="155.5" class="ty">VARCHAR(30)</tspan></text></svg><svg width="168.5" height="100" x="388" y="163" id="h1676682957" class="t"><rect height="40" width="168.5" class="th"></rect><text x="13" y="25" class="tht">dept_manager</text><rect height="60" width="168.5" class="t-bg"></rect><text x="13" y="61" class="tf fk">dept_no<tspan x="155.5" class="ty">VARCHAR(30)</tspan></text><text x="13" y="86" class="tf fk">emp_no<tspan x="155.5" class="ty">INT</tspan></text></svg><svg width="108.7" height="100" x="393" y="293" id="h2472833127" class="t"><rect height="40" width="108.7" class="th"></rect><text x="13" y="25" class="tht">salaries</text><rect height="60" width="108.7" class="t-bg"></rect><text x="13" y="61" class="tf fk">emp_no<tspan x="95.7" class="ty">INT</tspan></text><text x="13" y="86" class="tf">salary<tspan x="95.7" class="ty">INT</tspan></text></svg></g></g><text class="qdbd-link" x="10" y="20">www.quickdatabasediagrams.com</text></svg>